<svg width="178" height="85" viewBox="0 0 178 85" fill="none" xmlns="http://www.w3.org/2000/svg">
<g clip-path="url(#clip0_5813_232)">
<path d="M0.0224609 0H177.978V85H0.0224609V0Z" fill="black"/>
<path d="M36.6882 26.0378C38.4009 25.4608 40.2277 25.153 42.123 25.153C50.4198 25.153 57.3465 31.1084 58.9298 39.026L70.69 36.6022C67.9954 23.1524 56.2276 13.0266 42.123 13.0266C38.888 13.0266 35.79 13.5575 32.8823 14.5424L36.6882 26.0378Z" fill="#FFCB05"/>
<path d="M22.8119 64.556L30.7662 55.4689C27.2192 52.2911 24.9813 47.6514 24.9813 42.4807C24.9813 37.3178 27.2192 32.6781 30.7662 29.508L22.8119 20.4132C16.7834 25.8147 12.9775 33.7014 12.9775 42.4807C12.9775 51.2677 16.7834 59.1545 22.8119 64.556Z" fill="#00A4E0"/>
<path d="M58.9298 45.9586C57.3389 53.8685 50.4198 59.8162 42.1306 59.8162C40.2277 59.8162 38.3932 59.5085 36.6882 58.9237L32.8823 70.4345C35.79 71.4117 38.8956 71.9426 42.1306 71.9426C56.22 71.9426 67.9802 61.8322 70.69 48.3977L58.9298 45.9586Z" fill="#EF4123"/>
<path d="M80.9732 55.8459C80.585 55.215 80.0674 54.207 79.7477 53.4607C77.8828 49.0902 77.7991 44.5659 79.3671 40.2263C81.095 35.4635 84.3985 31.824 88.6687 29.962C94.035 27.6306 99.9645 28.0845 105.11 31.17C108.376 33.0628 110.69 35.9867 112.448 40.1263C112.669 40.6572 112.866 41.2189 113.064 41.7036L80.9732 55.8459ZM91.6906 36.987C87.8771 38.6413 85.9132 42.2576 86.3243 46.4895L102.461 39.4646C99.6829 36.1714 96.0749 35.0787 91.6906 36.987ZM104.471 52.268C104.463 52.268 104.463 52.2757 104.463 52.2757L104.128 52.0449C103.161 53.6222 101.662 54.9072 99.7666 55.7382C96.1587 57.3233 92.8171 56.9154 90.4118 54.7841L90.191 55.1227C90.191 55.1227 90.191 55.115 90.1834 55.115L86.0883 61.3089C87.1083 62.0245 88.1967 62.6247 89.3385 63.1094C93.8599 65.01 98.4879 64.9176 103.047 62.9171C106.343 61.4705 108.931 59.2699 110.697 56.4769L104.471 52.268ZM124.277 20.8518V55.2765L129.574 57.4464L126.568 64.5406L120.722 62.0784C119.413 61.5013 118.514 60.6241 117.845 59.6316C117.198 58.6236 116.718 57.2309 116.718 55.3689V20.8518H124.277ZM137.993 46.5126C137.993 43.5811 139.279 40.9496 141.304 39.1645L135.869 33.0397C132.185 36.3329 129.864 41.1419 129.864 46.4972C129.856 51.8602 132.178 56.6769 135.854 59.9701L141.281 53.8454C139.264 52.0526 137.993 49.4365 137.993 46.5126ZM147.645 56.2768C146.579 56.2768 145.544 56.0921 144.585 55.769L141.989 63.5634C143.763 64.1636 145.658 64.4944 147.637 64.4944C156.238 64.5021 163.416 58.3312 165.083 50.1367L157.106 48.4901C156.2 52.9451 152.311 56.2845 147.645 56.2768ZM147.667 28.5308C145.696 28.5308 143.801 28.854 142.027 29.4464L144.6 37.2486C145.567 36.9254 146.594 36.7484 147.66 36.7484C152.334 36.7561 156.231 40.1109 157.114 44.5736L165.091 42.9424C163.454 34.7325 156.276 28.5385 147.667 28.5308Z" fill="white"/>
</g>
<defs>
<clipPath id="clip0_5813_232">
<rect width="178" height="85" fill="white"/>
</clipPath>
</defs>
</svg>
