<svg width="300" height="21" viewBox="0 0 300 21" fill="none" xmlns="http://www.w3.org/2000/svg">
<path d="M10.7727 6.99998H9.36364C9.2803 6.59468 9.13447 6.23862 8.92614 5.9318C8.72159 5.62498 8.47159 5.36741 8.17614 5.15908C7.88447 4.94695 7.56061 4.78786 7.20455 4.6818C6.84849 4.57574 6.47727 4.52271 6.09091 4.52271C5.38636 4.52271 4.74811 4.70074 4.17614 5.0568C3.60795 5.41286 3.1553 5.93748 2.81818 6.63067C2.48485 7.32385 2.31818 8.17423 2.31818 9.1818C2.31818 10.1894 2.48485 11.0398 2.81818 11.7329C3.1553 12.4261 3.60795 12.9507 4.17614 13.3068C4.74811 13.6629 5.38636 13.8409 6.09091 13.8409C6.47727 13.8409 6.84849 13.7879 7.20455 13.6818C7.56061 13.5757 7.88447 13.4185 8.17614 13.2102C8.47159 12.9981 8.72159 12.7386 8.92614 12.4318C9.13447 12.1212 9.2803 11.7651 9.36364 11.3636H10.7727C10.6667 11.9583 10.4735 12.4905 10.1932 12.9602C9.91288 13.4299 9.56439 13.8295 9.14773 14.1591C8.73106 14.4848 8.26326 14.7329 7.74432 14.9034C7.22917 15.0738 6.67803 15.1591 6.09091 15.1591C5.09849 15.1591 4.21591 14.9167 3.44318 14.4318C2.67045 13.947 2.0625 13.2576 1.61932 12.3636C1.17614 11.4697 0.954545 10.4091 0.954545 9.1818C0.954545 7.95453 1.17614 6.89392 1.61932 5.99998C2.0625 5.10605 2.67045 4.41665 3.44318 3.9318C4.21591 3.44695 5.09849 3.20453 6.09091 3.20453C6.67803 3.20453 7.22917 3.28976 7.74432 3.46021C8.26326 3.63067 8.73106 3.88067 9.14773 4.21021C9.56439 4.53597 9.91288 4.9337 10.1932 5.40339C10.4735 5.8693 10.6667 6.4015 10.7727 6.99998ZM13.527 15H12.0497L16.3224 3.36362H17.777L22.0497 15H20.5724L17.0952 5.20453H17.0043L13.527 15ZM14.0724 10.4545H20.027V11.7045H14.0724V10.4545ZM23.8622 15V3.36362H27.794C28.7031 3.36362 29.4493 3.51892 30.0327 3.82953C30.616 4.13635 31.0478 4.5587 31.3281 5.09658C31.6084 5.63445 31.7486 6.2462 31.7486 6.9318C31.7486 7.61741 31.6084 8.22536 31.3281 8.75567C31.0478 9.28597 30.6179 9.70264 30.0384 10.0057C29.4588 10.3049 28.7183 10.4545 27.8168 10.4545H24.6349V9.1818H27.7713C28.3925 9.1818 28.8925 9.09089 29.2713 8.90908C29.6539 8.72726 29.9304 8.46968 30.1009 8.13635C30.2751 7.79923 30.3622 7.39771 30.3622 6.9318C30.3622 6.46589 30.2751 6.0587 30.1009 5.71021C29.9266 5.36173 29.6482 5.09279 29.2656 4.90339C28.883 4.71021 28.3774 4.61362 27.7486 4.61362H25.2713V15H23.8622ZM29.3395 9.77271L32.2031 15H30.5668L27.7486 9.77271H29.3395ZM37.6875 15H34.0966V3.36362H37.8466C38.9754 3.36362 39.9413 3.59658 40.7443 4.06248C41.5473 4.52461 42.1629 5.18938 42.5909 6.0568C43.0189 6.92044 43.233 7.95453 43.233 9.15908C43.233 10.3712 43.017 11.4148 42.5852 12.2898C42.1534 13.161 41.5246 13.8314 40.6989 14.3011C39.8731 14.767 38.8693 15 37.6875 15ZM35.5057 13.75H37.5966C38.5587 13.75 39.3561 13.5644 39.9886 13.1932C40.6212 12.822 41.0928 12.2935 41.4034 11.6079C41.714 10.9223 41.8693 10.106 41.8693 9.15908C41.8693 8.21968 41.7159 7.41097 41.4091 6.73294C41.1023 6.05112 40.6439 5.52839 40.0341 5.16476C39.4242 4.79733 38.6648 4.61362 37.7557 4.61362H35.5057V13.75Z" fill="#959595"/>
<path d="M45.1989 15V3.36362H49.7898C50.6723 3.36362 51.4242 3.53218 52.0455 3.8693C52.6667 4.20264 53.1402 4.66665 53.4659 5.26135C53.7955 5.85226 53.9602 6.53408 53.9602 7.3068C53.9602 8.07953 53.7936 8.76135 53.4602 9.35226C53.1269 9.94317 52.6439 10.4034 52.0114 10.7329C51.3826 11.0625 50.6212 11.2273 49.7273 11.2273H46.8011V9.25567H49.3295C49.803 9.25567 50.1932 9.17423 50.5 9.01135C50.8106 8.84468 51.0417 8.61551 51.1932 8.32385C51.3485 8.02839 51.4261 7.68938 51.4261 7.3068C51.4261 6.92044 51.3485 6.58332 51.1932 6.29544C51.0417 6.00377 50.8106 5.77839 50.5 5.6193C50.1894 5.45642 49.7955 5.37498 49.3182 5.37498H47.6591V15H45.1989ZM56.2202 15H53.5838L57.6009 3.36362H60.7713L64.7827 15H62.1463L59.2315 6.02271H59.1406L56.2202 15ZM56.0554 10.4261H62.2827V12.3466H56.0554V10.4261ZM64.3139 3.36362H67.0696L69.723 8.37498H69.8366L72.4901 3.36362H75.2457L71.0014 10.8863V15H68.5582V10.8863L64.3139 3.36362Z" fill="white"/>
<path fill-rule="evenodd" clip-rule="evenodd" d="M85.2028 13.8617L85.1995 13.8662L85.1963 13.8707C85.0183 14.1227 84.6196 14.1968 84.3077 13.9765C84.0581 13.8002 83.9831 13.4074 84.1957 13.097C84.5128 12.6927 84.7431 12.2201 84.8944 11.7581C85.0519 11.2771 85.1251 10.7305 85.1223 10.1944C85.1194 9.65838 85.0404 9.11262 84.8778 8.63333C84.7216 8.17295 84.4862 7.7028 84.1648 7.30194C83.9489 6.99377 84.0198 6.60017 84.2675 6.42122C84.577 6.19769 84.9765 6.26749 85.1571 6.51761L85.1604 6.5221L85.1637 6.5265C85.5638 7.05405 85.8919 7.64018 86.088 8.21523C86.2944 8.89171 86.4259 9.54608 86.4293 10.1875C86.4329 10.8624 86.3684 11.5013 86.1207 12.1302C85.851 12.8151 85.5898 13.34 85.2028 13.8617ZM88.0954 15.1145L88.1032 15.1034L88.1104 15.0919C88.9971 13.6713 89.5085 11.957 89.499 10.1711C89.4895 8.3857 88.9601 6.67737 88.0587 5.26646C87.8634 4.95669 87.9511 4.59045 88.2804 4.35261C88.5015 4.19288 88.9166 4.24944 89.1629 4.57952C90.1806 6.19416 90.7953 8.146 90.8061 10.1642C90.8172 12.2512 90.2238 14.1397 89.2224 15.7661C88.9908 16.085 88.6361 16.1743 88.3303 15.9936C87.9988 15.7507 87.9382 15.337 88.0954 15.1145ZM93.2861 2.45724L93.2948 2.47449L93.3049 2.49097C94.6839 4.73919 95.4502 7.33243 95.4652 10.1394C95.4801 12.945 94.7421 15.5451 93.3884 17.8072C93.1808 18.1409 92.8304 18.235 92.4752 18.0697C92.1519 17.859 92.065 17.5098 92.2339 17.1571C93.3852 15.1125 94.1011 12.703 94.0875 10.1467C94.074 7.60176 93.4085 5.19618 92.1569 3.15136C91.9875 2.80221 92.0714 2.45448 92.3909 2.24137C92.7763 2.05725 93.1518 2.1922 93.2861 2.45724ZM97.3691 0.317663L97.3751 0.329447L97.3817 0.340883C99.0528 3.22941 100.035 6.53184 100.054 10.1149C100.073 13.6943 99.1281 17.0039 97.491 19.9079C97.2831 20.2378 96.9343 20.3302 96.5808 20.1656C96.2585 19.9556 96.1712 19.608 96.3379 19.2564C97.915 16.5648 98.7643 13.4463 98.7466 10.1219C98.7288 6.78887 97.7717 3.68251 96.2427 1.0174C96.0511 0.628355 96.1861 0.247321 96.4535 0.111831C96.846 -0.0870443 97.2325 0.0479557 97.3691 0.317663Z" fill="white"/>
</svg>
